<?xml version="1.0" encoding="utf-8"?>
<!-- Generator: Adobe Illustrator 27.0.0, SVG Export Plug-In . SVG Version: 6.00 Build 0)  -->
<svg version="1.1" id="Layer_1" xmlns="http://www.w3.org/2000/svg" xmlns:xlink="http://www.w3.org/1999/xlink" x="0px" y="0px"
	 viewBox="0 0 140 207" style="enable-background:new 0 0 140 207;" xml:space="preserve">
<style type="text/css">
	.st0{opacity:0.07;fill:#808285;}
	.st1{fill:none;stroke:#A7A9AC;stroke-width:3;stroke-miterlimit:10;}
</style>
<circle class="st0" cx="69.67" cy="97.46" r="59"/>
<g>
	<g>
		<path class="st1" d="M95.38,116.74H53.6c-3.55,0-6.43-2.88-6.43-6.43V74.97c0-3.55,2.88-6.43,6.43-6.43h41.78
			c3.55,0,6.43,2.88,6.43,6.43v35.35C101.8,113.87,98.93,116.74,95.38,116.74z"/>
		<path class="st1" d="M82.51,126.38H43.96c-3.55,0-6.43-2.88-6.43-6.43V85.89"/>
		<path class="st1" d="M67.56,80.82c2.09,2.09,2.09,5.48,0,7.58c-2.09,2.09-5.48,2.09-7.58,0c-2.09-2.09-2.09-5.48,0-7.58
			C62.08,78.73,65.47,78.73,67.56,80.82"/>
		<path class="st1" d="M101.8,103.35l-10.88-8.71c-1.39-1.11-3.41-0.88-4.52,0.5l-8.27,10.33c-1.11,1.39-3.13,1.61-4.52,0.5
			l-4.17-3.34c-1.37-1.09-3.35-0.89-4.48,0.45L53.6,116.74"/>
	</g>
</g>
</svg>
