<?xml version="1.0" encoding="utf-8"?>
<!-- Generator: Adobe Illustrator 27.0.0, SVG Export Plug-In . SVG Version: 6.00 Build 0)  -->
<svg version="1.1" id="Layer_1" xmlns="http://www.w3.org/2000/svg" xmlns:xlink="http://www.w3.org/1999/xlink" x="0px" y="0px"
	 viewBox="0 0 309 35" style="enable-background:new 0 0 309 35;" xml:space="preserve">
<style type="text/css">
	.st0{fill:#E8C8C8;stroke:#D43F3A;stroke-miterlimit:10;}
	.st1{fill:#D43F3A;}
	.st2{fill:#E8C8C8;}
</style>
<path class="st0" d="M301.29,31H7.71C5.66,31,4,29.34,4,27.29V8.71C4,6.66,5.66,5,7.71,5h293.59c2.05,0,3.71,1.66,3.71,3.71v18.59
	C305,29.34,303.34,31,301.29,31z"/>
<path class="st1" d="M132,24.73l-0.07,0.06c-0.21-0.12-0.49-0.38-0.84-0.77c-0.34-0.37-0.62-0.61-0.86-0.73
	c-0.41,0.42-0.76,0.62-1.07,0.62c-0.3,0-0.55-0.06-0.76-0.19c-0.24-0.15-0.36-0.37-0.36-0.65c0-0.28,0.1-0.51,0.31-0.68
	c0.21-0.18,0.46-0.26,0.74-0.26c0.25,0,0.54,0.11,0.86,0.32c0.07-0.1,0.1-0.25,0.1-0.47c-0.01-0.14-0.02-0.3-0.04-0.49l0.02-0.01
	c0.19,0,0.33,0.19,0.42,0.56c0.03,0.14,0.07,0.42,0.12,0.82c0.31,0.22,0.61,0.48,0.89,0.79c0.35,0.39,0.53,0.72,0.53,0.98V24.73z
	 M129.66,22.96c0-0.16-0.16-0.24-0.48-0.24c-0.42,0-0.62,0.11-0.62,0.32c0,0.2,0.12,0.3,0.35,0.3c0.12,0,0.27-0.04,0.44-0.11
	C129.56,23.15,129.66,23.06,129.66,22.96z"/>
<path class="st1" d="M287,23.73l-0.07,0.06c-0.21-0.12-0.49-0.38-0.84-0.77c-0.34-0.37-0.62-0.61-0.86-0.73
	c-0.41,0.42-0.76,0.62-1.07,0.62c-0.3,0-0.55-0.06-0.76-0.19c-0.24-0.15-0.36-0.37-0.36-0.65c0-0.28,0.1-0.51,0.31-0.68
	c0.21-0.18,0.46-0.26,0.74-0.26c0.25,0,0.54,0.11,0.86,0.32c0.07-0.1,0.1-0.25,0.1-0.47c-0.01-0.14-0.02-0.3-0.04-0.49l0.02-0.01
	c0.19,0,0.33,0.19,0.42,0.56c0.03,0.14,0.07,0.42,0.12,0.82c0.31,0.22,0.61,0.48,0.89,0.79c0.35,0.39,0.53,0.72,0.53,0.98V23.73z
	 M284.66,21.96c0-0.16-0.16-0.24-0.48-0.24c-0.42,0-0.62,0.11-0.62,0.32c0,0.2,0.12,0.3,0.35,0.3c0.12,0,0.27-0.04,0.44-0.11
	C284.56,22.15,284.66,22.06,284.66,21.96z"/>
<path class="st1" d="M212,24.73l-0.07,0.06c-0.21-0.12-0.49-0.38-0.84-0.77c-0.34-0.37-0.62-0.61-0.86-0.73
	c-0.41,0.42-0.76,0.62-1.07,0.62c-0.3,0-0.55-0.06-0.76-0.19c-0.24-0.15-0.36-0.37-0.36-0.65c0-0.28,0.1-0.51,0.31-0.68
	c0.21-0.18,0.46-0.26,0.74-0.26c0.25,0,0.54,0.11,0.86,0.32c0.07-0.1,0.1-0.25,0.1-0.47c-0.01-0.14-0.02-0.3-0.04-0.49l0.02-0.01
	c0.19,0,0.33,0.19,0.42,0.56c0.03,0.14,0.07,0.42,0.12,0.82c0.31,0.22,0.61,0.48,0.89,0.79c0.35,0.39,0.53,0.72,0.53,0.98V24.73z
	 M209.66,22.96c0-0.16-0.16-0.24-0.48-0.24c-0.42,0-0.62,0.11-0.62,0.32c0,0.2,0.12,0.3,0.35,0.3c0.12,0,0.27-0.04,0.44-0.11
	C209.56,23.15,209.66,23.06,209.66,22.96z"/>
<path class="st1" d="M296.51,14.91c-0.02,0.34-0.19,0.67-0.25,1.01c-0.04,0.22-0.34,0.54,0.1,0.66c0.33,0.08,0.46-0.2,0.58-0.46
	c0.3-0.7,0.62-1.4,0.93-2.09c0-0.08,0-0.16,0-0.23C297,13.69,296.55,14.04,296.51,14.91z"/>
<path class="st1" d="M151.69,23.13c-1.7,0.56-0.57-0.76-0.76-1.22c-0.65,0.36-1.18,0.78-0.81,1.49c0.33,0.63,0.92,0.4,1.45,0.16
	c0.1-0.04,0.23-0.01,0.35-0.02c0.16,0.15,0.32,0.31,0.48,0.46c0.4,0,0.8,0,1.2,0c0.16-0.19,0.32-0.39,0.57-0.7
	c-0.69-0.01-1.27-0.02-1.7-0.47C152,22.36,151.93,22.98,151.69,23.13z"/>
<path class="st1" d="M113.99,14.74c-0.72,0.14-0.9-0.38-1.21-0.94c0.15,1.12-0.58,0.94-1.15,0.92c-6.44-0.14-12.89,0.07-19.34-0.12
	c-2.86-0.09-5.79-0.01-8.68,0.12c-0.8,0.04-1.6-0.17-2.4,0c-0.22,0.04-0.5-0.07-0.53,0.3c-0.02,0.3,0.1,0.45,0.41,0.41
	c0.78-0.11,0.69,0.4,0.69,0.88c-0.01,1.37,0,2.74,0,4.11c0,0.55,0.06,1.05,0.78,1.42c0-1.96-0.01-3.78,0.01-5.61
	c0-0.29-0.23-0.78,0.38-0.79c1.92-0.01,3.84-0.01,5.75-0.01c-1.36,0.92-2.73,1.61-4.09,2.33c-0.24,0.12-0.72,0.15-0.48,0.62
	c0.15,0.29,0.12,0.81,0.59,0.78c1.18-0.08,2.08,0.6,3.09,0.99c0.34,0.31,0.68,0.61,1.01,0.92c0.22,0.21,0.23,0.67,0.75,0.61
	c0-0.94,0-1.83,0-2.73c0-0.94,0.06-1.88-0.02-2.81c-0.07-0.96,0.59-0.73,1.09-0.71c0.5,0.03,1.26-0.36,1.22,0.72
	c-0.06,1.4-0.01,2.81-0.02,4.22c0,0.54,0.03,1.07,0.6,1.35c0.07-0.05,0.13-0.07,0.13-0.08c0.02-1.8,0.07-3.59,0.04-5.39
	c-0.01-0.66,0.17-0.87,0.86-0.84c1.59,0.05,3.19,0.04,4.79,0c0.54-0.01,0.67,0.17,0.66,0.67c-0.03,1.09,0.15,2.22-0.06,3.27
	c-0.19,0.98,0.3,1.58,0.79,2.29c0-1.24,0-2.48,0-3.73c0-2.57,0-2.57,2.61-2.47c0.05,0,0.1,0.08,0.15,0.12
	c-0.8,1.45-1.3,2.92-0.6,4.54c-0.04,0.66,0.35,1.09,0.84,1.43c0.47,0.33,0.99,0.38,1.35-0.14c0.36-0.53,0.4-1.12-0.15-1.56
	c-0.54-0.43-0.94-0.16-1.2,0.39c-0.36,0.75-0.46-0.02-0.68-0.11c-0.33-1.7,0.14-3.16,1.4-4.36c0.49-0.46,1.82-0.42,1.7-0.12
	c-0.41,1.05,0.46,0.69,0.85,0.81c0.6,0.18,1.23,0.28,1.85,0.42c-0.45,0.92-1.51,1-2.21,1.57c-0.19,0.16-0.57,0.17-0.45,0.55
	c0.08,0.25,0.22,0.66,0.46,0.62c1.17-0.19,2.16,0.6,3.3,0.51c-0.51-0.66-1.3-0.89-2-1.28c0-0.03,0.01-0.06,0.02-0.09
	c0.22-0.33,0.6-0.43,0.9-0.61c1.18-0.71,1.21-0.73,0.1-1.47c-0.03-0.02-0.06-0.04-0.1-0.07c-0.38-0.48-0.97-0.65-1.7-1.18
	c1.27,0,2.29,0,3.32,0c0.26,0,0.32,0.17,0.32,0.39c-0.01,1.52,0,3.05-0.03,4.57c0,0.27-0.28,0.2-0.46,0.22
	c0.35,0.38,0.71,0.77,1.24,1.34c0-2.09,0.06-3.92-0.02-5.74c-0.04-1.02,0.61-0.78,1.16-0.78c0.57-0.01,1.21-0.2,1.14,0.81
	c-0.1,1.36-0.02,2.74-0.02,4.1c0,0.54,0,1.07,0.75,1.47c0-1.95,0-3.76,0-5.58c0-0.43-0.1-0.9,0.62-0.82
	c0.26,0.03,0.61,0.07,0.57-0.37C114.59,14.62,114.22,14.69,113.99,14.74z M88.8,20.55c-0.07-0.05-0.15-0.1-0.22-0.16
	c-0.13-0.09-0.27-0.19-0.4-0.28c-0.02-0.03-0.05-0.05-0.07-0.08c-0.63-0.83-1.57-1.27-2.58-1.84c1.11-0.57,2.11-1.08,3.28-1.67
	C88.8,17.96,88.8,19.25,88.8,20.55z"/>
<path class="st1" d="M259.98,14.74c-0.72,0.14-0.9-0.38-1.21-0.94c0.15,1.12-0.58,0.94-1.15,0.92c-6.44-0.14-12.89,0.07-19.34-0.12
	c-2.86-0.09-5.79-0.01-8.68,0.12c-0.8,0.04-1.6-0.17-2.4,0c-0.22,0.04-0.5-0.07-0.53,0.3c-0.02,0.3,0.1,0.45,0.41,0.41
	c0.78-0.11,0.69,0.4,0.69,0.88c-0.01,1.37,0,2.74,0,4.11c0,0.55,0.06,1.05,0.78,1.42c0-1.96-0.01-3.78,0.01-5.61
	c0-0.29-0.23-0.78,0.38-0.79c1.92-0.01,3.84-0.01,5.75-0.01c-1.36,0.92-2.73,1.61-4.1,2.33c-0.24,0.12-0.72,0.16-0.48,0.62
	c0.15,0.29,0.12,0.81,0.59,0.78c1.18-0.08,2.08,0.6,3.09,0.99c0.34,0.31,0.68,0.61,1.01,0.92c0.22,0.21,0.23,0.67,0.75,0.61
	c0-1.87,0.05-3.71-0.02-5.54c-0.04-0.96,0.6-0.73,1.09-0.71c0.5,0.03,1.26-0.36,1.22,0.72c-0.06,1.4-0.01,2.81-0.02,4.22
	c0,0.54,0.03,1.07,0.78,1.44c0-1.93,0.03-3.75-0.02-5.56c-0.02-0.66,0.17-0.87,0.85-0.84c1.59,0.05,3.19,0.04,4.79,0
	c0.54-0.01,0.67,0.17,0.66,0.67c-0.03,1.09,0.15,2.22-0.06,3.27c-0.19,0.98,0.3,1.59,0.79,2.29c0-1.24,0-2.48,0-3.73
	c0-2.57,0-2.57,2.61-2.47c0.05,0,0.1,0.08,0.15,0.13c-0.8,1.45-1.3,2.92-0.6,4.54c-0.04,0.66,0.35,1.09,0.84,1.43
	c0.47,0.33,0.99,0.38,1.35-0.14c0.36-0.53,0.4-1.12-0.15-1.56c-0.54-0.43-0.94-0.16-1.2,0.39c-0.36,0.75-0.46-0.02-0.68-0.11
	c-0.33-1.7,0.14-3.16,1.4-4.36c0.49-0.46,1.82-0.42,1.7-0.12c-0.41,1.05,0.46,0.69,0.85,0.81c0.6,0.18,1.23,0.28,1.85,0.42
	c-0.45,0.92-1.51,1-2.21,1.57c-0.19,0.16-0.57,0.17-0.45,0.55c0.08,0.25,0.22,0.66,0.46,0.62c1.17-0.19,2.16,0.6,3.3,0.51
	c-0.51-0.66-1.3-0.89-2-1.28c0-0.03,0.01-0.06,0.02-0.09c0.22-0.33,0.6-0.43,0.9-0.61c1.18-0.71,1.21-0.73,0.1-1.47
	c-0.03-0.02-0.06-0.04-0.1-0.07c-0.38-0.48-0.97-0.65-1.7-1.18c1.27,0,2.29,0,3.32,0c0.26,0,0.32,0.17,0.32,0.39
	c-0.01,1.52,0,3.05-0.03,4.57c0,0.27-0.28,0.2-0.46,0.22c0.35,0.38,0.71,0.77,1.23,1.34c0-2.09,0.06-3.92-0.02-5.74
	c-0.04-1.02,0.61-0.78,1.16-0.78c0.57-0.01,1.21-0.2,1.14,0.81c-0.1,1.36-0.02,2.74-0.02,4.1c0,0.54,0,1.07,0.75,1.47
	c0-1.95,0-3.76,0-5.58c0-0.43-0.1-0.9,0.62-0.82c0.26,0.03,0.61,0.07,0.57-0.37C260.58,14.62,260.22,14.69,259.98,14.74z
	 M234.79,20.55L234.79,20.55c-0.07-0.05-0.15-0.1-0.22-0.16c-0.13-0.09-0.27-0.19-0.4-0.28c-0.02-0.03-0.05-0.05-0.07-0.08
	c-0.64-0.81-1.54-1.3-2.64-1.81c1.17-0.6,2.16-1.1,3.33-1.7C234.79,17.96,234.79,19.25,234.79,20.55z"/>
<path class="st1" d="M293.13,14.74c-4.19-0.02-8.38-0.01-12.57-0.01c-3.15,0-6.31-0.01-9.46,0.01c-0.29,0-0.82-0.24-0.8,0.35
	c0.02,0.57,0.53,0.32,0.83,0.33c1.16,0.03,2.31,0,3.47,0.02c0.24,0,0.59-0.17,0.7,0.22c0.12,0.43-0.23,0.53-0.51,0.65
	c-1.13,0.49-2.26,0.97-3.38,1.47c-0.22,0.1-0.64,0.11-0.54,0.46c0.09,0.3,0.18,0.69,0.67,0.71c1.08,0.04,1.95,0.62,2.82,1.16
	c0.22-0.71-0.49-0.79-0.82-1.11c-0.29-0.28-0.68-0.48-1.15-0.8c1.03-0.42,1.92-0.79,2.94-1.21c0,1.07-0.07,1.99,0.02,2.91
	c0.07,0.68-0.44,0.38-0.7,0.52c0.42,0.44,0.83,0.88,1.43,1.52c0-1.49,0-2.75,0-4.01c0-1.4,0.52-1.71,1.82-1.07
	c0.27,0.13,0.5,0.36,0.75,0.55c-0.05,0.73-0.08,0.79-0.4,0.58c-0.48-0.31-0.9-0.34-1.2,0.15c-0.24,0.39-0.2,0.83,0.24,1.12
	c0.52,0.34,1.02,0.21,1.36-0.23c0.51-0.63,0.59-1.32,0.07-2.01c-0.51-1.11-1.76-0.9-2.61-1.5c2.9,0,5.8,0,8.95,0
	c-1.59,0.82-2.98,1.53-4.36,2.26c-0.24,0.13-0.69,0.17-0.45,0.64c0.17,0.32,0.14,0.82,0.73,0.77c0.78-0.06,1.47,0.32,2.19,0.51
	c0.35,0.21,0.69,0.43,1.04,0.64c0.14-0.54-0.28-0.69-0.62-0.91c-0.02-0.02-0.05-0.03-0.07-0.05c-0.43-0.57-1.18-0.71-1.82-1.21
	c1.07-0.55,2.06-1.06,3.24-1.67c0,1.3,0.01,2.47,0,3.64c-0.01,0.73-0.51,0.03-0.71,0.21c0.42,0.47,0.85,0.94,1.45,1.62
	c0-2.12,0.02-3.94-0.01-5.76c-0.01-0.6,0.13-0.82,0.79-0.8c1.67,0.04,3.35,0.04,5.03,0c0.54-0.01,0.68,0.16,0.66,0.67
	c-0.03,1.09,0.15,2.22-0.06,3.27c-0.19,0.98,0.3,1.59,0.7,2.31c0.09-1.84,0.08-3.67,0.09-5.5c0-0.31-0.16-0.74,0.45-0.75
	c0.3,0,0.84,0.18,0.72-0.43C293.92,14.48,293.43,14.74,293.13,14.74z"/>
<path class="st1" d="M42.32,14.74c-2.27-0.02-4.55-0.05-6.82,0.01c-0.72,0.02-1.07-0.24-1.31-0.94c0.02,0.83-0.38,0.95-1.05,0.94
	c-2.71-0.04-5.42,0.01-8.13-0.03c-0.8-0.01-1.36,0.06-1.12,1.02c0.24,0.98-0.54,0.12-0.8,0.45c1.75,1.52-0.04,3.9,1.57,5.52
	c0-0.38,0-0.76,0-1.14c0-1.48,0.01-2.97-0.01-4.45c-0.01-0.48,0.11-0.77,0.65-0.68c0.38,0.07,1.19-0.11,1.09,0.2
	c-0.34,1.06,0.48,0.71,0.88,0.82c0.61,0.18,1.23,0.28,1.85,0.42c-0.45,0.92-1.51,1-2.21,1.57c-0.19,0.16-0.57,0.17-0.45,0.55
	c0.08,0.25,0.22,0.66,0.46,0.62c1.17-0.19,2.16,0.6,3.3,0.51c-0.51-0.66-1.3-0.89-2-1.28c0-0.03,0.01-0.06,0.02-0.09
	c0.22-0.33,0.6-0.43,0.9-0.61c1.18-0.71,1.21-0.73,0.1-1.47c-0.03-0.02-0.06-0.04-0.1-0.07c-0.38-0.48-0.97-0.65-1.7-1.18
	c1.27,0,2.29,0,3.32,0c0.26,0,0.32,0.17,0.32,0.39c-0.01,1.52,0,3.04-0.03,4.57c0,0.27-0.28,0.2-0.46,0.22
	c0.35,0.38,0.71,0.77,1.24,1.34c0-2.06,0.07-3.84-0.03-5.62c-0.05-1.01,0.51-0.89,1.17-0.92c0.73-0.03,1.2,0.01,1.13,0.96
	c-0.09,1.32-0.02,2.66-0.02,3.99c0,0.54,0.02,1.06,0.75,1.46c0-1.96-0.01-3.78,0.01-5.6c0-0.35-0.18-0.81,0.51-0.8
	c1.89,0.02,3.79,0.01,5.68,0.01c-1.34,0.91-2.73,1.62-4.12,2.35c-0.24,0.13-0.69,0.17-0.45,0.64c0.17,0.32,0.14,0.82,0.73,0.77
	c0.78-0.06,1.47,0.32,2.19,0.51c0.35,0.21,0.69,0.43,1.04,0.64c0.14-0.54-0.28-0.69-0.62-0.91c-0.02-0.02-0.05-0.03-0.07-0.05
	c-0.44-0.54-1.11-0.73-1.85-1.18c1.1-0.57,2.11-1.1,3.28-1.7c0,1.23-0.07,2.32,0.02,3.39c0.07,0.78-0.39,0.48-0.72,0.48
	c0.42,0.47,0.84,0.93,1.43,1.6c0-2.12-0.01-3.94,0-5.76c0-0.35-0.18-0.83,0.51-0.8c0.27,0.01,0.71,0.16,0.67-0.38
	C43.01,14.52,42.57,14.74,42.32,14.74z"/>
<path class="st1" d="M221.02,15.64c-0.03-0.66-0.1-0.94-0.89-0.94c-4.99,0.04-9.97,0.02-14.96,0.03c-0.29,0-0.82-0.24-0.79,0.36
	c0.03,0.58,0.55,0.31,0.84,0.32c1.44,0.03,2.87,0.01,4.31,0.01c-1.36,0.92-2.74,1.62-4.1,2.34c-0.23,0.12-0.72,0.16-0.48,0.62
	c0.15,0.29,0.12,0.81,0.59,0.78c1.18-0.08,2.08,0.61,3.09,0.99c0.34,0.31,0.68,0.61,1.01,0.92c0.22,0.21,0.23,0.67,0.75,0.61
	c0-1.37,0-2.69,0-4.01c0-2.32,0-2.33,2.38-2.23c0.05,0,0.09,0.09,0.13,0.14c-0.8,1.43-1.3,2.91-0.59,4.53
	c-0.04,0.66,0.35,1.09,0.84,1.43c0.47,0.33,0.99,0.38,1.35-0.14c0.36-0.53,0.4-1.12-0.15-1.56c-0.54-0.43-0.94-0.16-1.2,0.39
	c-0.36,0.75-0.46-0.02-0.68-0.11c-0.3-1.34,0.01-2.55,0.78-3.66c0.31-0.45,0.63-1,1.24-1.01c1.88-0.05,3.76-0.02,5.64-0.02
	c-1.25,0.9-2.54,1.57-3.81,2.28c-0.26,0.14-0.8,0.15-0.58,0.68c0.15,0.37,0.2,0.8,0.83,0.82c0.96,0.04,1.84,0.43,2.67,0.91
	c0.2-0.76-0.54-0.84-0.91-1.15c-0.32-0.27-0.74-0.42-1.3-0.72c1.09-0.57,2.08-1.09,3.21-1.68c0,1.26,0.05,2.38-0.02,3.49
	c-0.05,0.79-0.42,0.38-0.7,0.09c0,0,0,0,0,0c0.49,0.48,0.68,1.21,1.34,1.56c0.49-0.83-0.43-2,0.73-2.62c0.01,0-0.04-0.14-0.08-0.2
	C220.6,17.92,221.07,16.74,221.02,15.64z M209.62,20.55c-0.07-0.05-0.15-0.1-0.22-0.16c-0.13-0.09-0.27-0.19-0.4-0.28
	c-0.02-0.03-0.05-0.05-0.07-0.08c-0.63-0.83-1.57-1.27-2.58-1.84c1.11-0.57,2.11-1.08,3.28-1.67
	C209.62,17.96,209.62,19.25,209.62,20.55z"/>
<path class="st1" d="M145,14.74c-4.27-0.01-8.54,0-12.81-0.02c-0.59,0-0.74,0.18-0.72,0.73c0.04,1.37,0.21,2.78-0.05,4.09
	c-0.2,0.99,0.22,1.51,0.7,2.16c0.1-1.83,0.16-3.66,0.08-5.47c-0.04-0.89,0.45-0.86,1.01-0.78c0.52,0.07,1.36-0.43,1.32,0.74
	c-0.06,1.41-0.01,2.82-0.02,4.22c0,0.55,0.06,1.05,0.78,1.44c0-1.96,0.02-3.78-0.01-5.6c-0.01-0.56,0.07-0.84,0.76-0.82
	c1.52,0.05,3.03,0.01,4.55,0.03c0.24,0,0.59-0.17,0.7,0.22c0.13,0.42-0.22,0.53-0.51,0.65c-1.13,0.49-2.26,0.97-3.38,1.47
	c-0.22,0.1-0.64,0.11-0.54,0.46c0.09,0.3,0.18,0.7,0.67,0.71c1.08,0.04,1.95,0.62,2.82,1.16c0.22-0.71-0.49-0.79-0.82-1.11
	c-0.29-0.28-0.68-0.48-1.15-0.8c1.03-0.42,1.92-0.79,2.94-1.21c0,1.07-0.07,1.99,0.02,2.91c0.07,0.68-0.44,0.38-0.7,0.52
	c0.42,0.44,0.83,0.88,1.43,1.52c0-1.49,0-2.75,0-4.01c0-1.4,0.52-1.71,1.82-1.07c0.27,0.13,0.5,0.36,0.75,0.55
	c-0.05,0.73-0.08,0.79-0.4,0.58c-0.48-0.31-0.9-0.34-1.2,0.15c-0.24,0.39-0.2,0.83,0.24,1.12c0.52,0.34,1.02,0.21,1.36-0.23
	c0.51-0.63,0.59-1.32,0.07-2.01c-0.51-1.11-1.76-0.9-2.64-1.46c0.99-0.14,1.96-0.12,2.93-0.14c0.27-0.01,0.71,0.19,0.71-0.34
	C145.72,14.54,145.27,14.74,145,14.74z"/>
<path class="st1" d="M77.67,14.73c-2.19,0-4.39,0.02-6.58,0.03c-1.34-0.01-2.69-0.06-4.03-0.03c-0.7,0.02-1.27-0.03-1.41-0.96
	c-0.04,0.94-0.62,1.01-1.27,0.99c-2.88,0-5.75,0-8.63,0c-0.69-0.15-1.68,0.32-1.95-1.06c0.19,1.09-0.39,1.03-1.01,1.03
	c-1.99-0.02-3.99-0.04-5.98,0.02c-0.37,0.01-1.13-0.43-1.11,0.36c0.01,0.62,0.7,0.29,1.06,0.3c1.35,0.04,2.71,0.02,4.06,0.02
	c-1.37,0.92-2.75,1.62-4.11,2.34c-0.23,0.12-0.72,0.16-0.47,0.63c0.15,0.29,0.12,0.8,0.6,0.77c1.18-0.08,2.08,0.61,3.09,0.99
	c0.34,0.31,0.68,0.61,1.01,0.92c0.22,0.21,0.23,0.67,0.75,0.61c0-1.67,0-3.3,0-4.94c0-0.69-0.24-1.4,1.04-1.38
	c1.22,0.01,0.99,0.67,0.99,1.33c0,1.25,0,2.49,0,3.74c0,0.52,0.02,1.05,0.75,1.32c0-1.73,0.06-3.37-0.02-5
	c-0.05-1,0.17-1.55,1.3-1.37c0.86,0,1.72,0,2.63,0c-0.74,1.59-0.74,1.8-0.01,2.68c0.79,0.96,1.55,0.07,2.33-0.02
	c0.13,0.87-0.16,1.56-0.99,1.92c-1.05,0.46-1.83-0.07-2.52-0.78c-0.19-0.26-0.15-0.82-0.69-0.61l0,0l-0.01,0l-0.09,0.02
	c0.19-0.34,0.37-0.69,0.05-1.05c-0.17-0.54-0.05-1.19-0.69-1.82c0.09,0.86,0.12,1.5,0.45,2.08c0.06,0.27,0.12,0.53,0.18,0.8
	c0,0,0,0,0,0l0,0c0,0,0,0,0,0c0,0,0,0.01,0,0.01c0,0,0,0,0,0c0,0,0,0,0,0c0.17,0.29,0.34,0.58,0.51,0.87
	c0.85,1.42,1.81,1.89,2.96,1.46c1.11-0.42,1.52-1.48,1.14-2.93c-0.06-0.51-0.41-0.81-0.79-1.1c-0.58,0.35-0.72,1.6-1.81,0.83
	c-0.06-0.73,0.35-1.24,0.82-1.74c0.61-0.65,1.46-0.3,2.18-0.51c0.92-0.27,1.97-0.09,2.97-0.1c0.83-0.09,1.19,0.18,1.11,1.09
	c-0.1,1.28-0.02,2.57-0.03,3.86c0,0.54,0.01,1.07,0.76,1.51c0-1.48,0-2.82,0-4.15c0-2.33,0-2.33,2.36-2.25
	c0.11,0,0.25-0.01,0.24,0.16c-0.8,1.43-1.29,2.9-0.59,4.52c-0.03,0.65,0.35,1.09,0.84,1.43c0.52,0.36,1.08,0.36,1.42-0.24
	c0.28-0.5,0.31-1.07-0.21-1.47c-0.55-0.42-0.95-0.16-1.21,0.39c-0.35,0.75-0.46,0-0.68-0.1c-0.04-0.23-0.09-0.46-0.11-0.68
	c-0.18-2,1.15-3.92,2.8-4.05c1.72,0,3.45,0,5.17,0c-1.32,0.93-2.68,1.63-4.03,2.34c-0.27,0.14-0.78,0.14-0.55,0.69
	c0.16,0.39,0.23,0.83,0.85,0.77c0.73-0.07,1.38,0.32,2.06,0.5c0.35,0.21,0.69,0.43,1.04,0.64c0.15-0.54-0.28-0.69-0.62-0.91
	c-0.02-0.02-0.05-0.03-0.07-0.05c-0.44-0.53-1.1-0.74-1.88-1.16c1.13-0.59,2.14-1.11,3.3-1.71c0,1.23-0.07,2.32,0.02,3.39
	c0.07,0.78-0.39,0.48-0.72,0.48c0.42,0.47,0.84,0.93,1.43,1.6c0-2.12,0.01-3.94,0-5.76c0-0.46-0.04-0.88,0.65-0.79
	c0.27,0.04,0.59,0.05,0.55-0.39C78.26,14.59,77.91,14.73,77.67,14.73z M50.92,20.55c-0.07-0.05-0.15-0.1-0.22-0.16
	c-0.13-0.09-0.27-0.19-0.4-0.28c-0.02-0.03-0.05-0.05-0.07-0.08c-0.63-0.82-1.57-1.27-2.58-1.83c1.11-0.57,2.1-1.08,3.27-1.67
	C50.92,17.96,50.92,19.25,50.92,20.55z"/>
<path class="st1" d="M128.66,20.16C128.66,20.16,128.66,20.16,128.66,20.16c0.48,0.48,0.69,1.21,1.38,1.59
	c0.31-0.93-0.3-2.04,0.68-2.75c-0.99-1.03-0.51-2.31-0.55-3.47c-0.02-0.7-0.27-0.83-0.9-0.81c-1.4,0.04-2.79,0-4.19,0.02
	c-0.29,0.01-0.81-0.24-0.78,0.38c0.03,0.51,0.48,0.3,0.74,0.3c1.41,0.02,2.81,0.01,4.22,0.01c-1.25,0.9-2.53,1.57-3.8,2.28
	c-0.26,0.15-0.8,0.15-0.58,0.68c0.15,0.37,0.2,0.8,0.83,0.83c0.96,0.04,1.85,0.43,2.68,0.91c0.2-0.76-0.54-0.84-0.91-1.15
	c-0.32-0.27-0.74-0.42-1.3-0.72c1.09-0.57,2.08-1.09,3.21-1.68c0,1.26,0.05,2.38-0.02,3.49C129.31,20.86,128.94,20.43,128.66,20.16z
	"/>
<path class="st1" d="M152.76,14.72c-0.98-0.14-1.59,0.06-1.38,1.24c0.11,0.58-0.14,0.59-0.48,0.18c-0.11-0.34-0.33-0.59-0.67-0.72
	c-1.45-1.5-3.49-0.37-3.97,1.1c-0.13,0.39-0.19,0.79,0.13,1.1c0.36,0.36,0.65,0.03,0.93-0.16c0.4-0.27,0.77-0.19,1.05,0.16
	c0.36,0.44-0.01,0.7-0.31,0.96c-0.26,0.23-0.5,0.47-0.75,0.7c0.47,0.45,0.84,0.37,1.26-0.03c0.66-0.62,1.38-1.18,2.08-1.76
	c0.14-0.12,0.35-0.27,0.5-0.24c0.29,0.06,0.23,0.36,0.23,0.59c0.01,0.9,0.01,1.8,0,2.69c0,0.52,0.11,0.96,0.74,1.18
	c0-1.86,0.01-3.66-0.01-5.45c0-0.51-0.02-0.96,0.72-0.84c0.24,0.04,0.47,0.01,0.49-0.33C153.35,14.64,153.02,14.76,152.76,14.72z
	 M148.47,16.97c-0.39-0.3-0.83-0.04-1.26,0.01c0.53-1.34,1.34-1.73,2.75-1.37c0.03,0.02,0.05,0.04,0.08,0.06
	c0.18,0.14,0.36,0.29,0.54,0.43c0.02,0.01,0.03,0.03,0.05,0.04C150.12,16.95,149.69,17.92,148.47,16.97z"/>
<path class="st1" d="M190.09,14.73c-3.39,0-6.78,0.02-10.17,0.03c-2.88,0-5.75,0-8.63,0c-0.75-0.01-1.51-0.08-2.25-0.02
	c-0.53,0.05-1.47-0.35-1.5,0.28c-0.04,0.85,0.94,0.17,1.4,0.43c0.03,0.02,0.06,0.03,0.13,0.07c-0.81,1.44-1.35,2.94-0.63,4.59
	c-0.03,0.65,0.35,1.09,0.84,1.43c0.47,0.32,0.99,0.38,1.35-0.14c0.36-0.53,0.4-1.12-0.15-1.56c-0.54-0.43-0.94-0.16-1.2,0.38
	c-0.36,0.75-0.46-0.01-0.68-0.1c-0.04-0.23-0.09-0.46-0.11-0.68c-0.18-2,1.15-3.92,2.81-4.05c0.86,0,1.72,0,2.63,0
	c-0.74,1.59-0.74,1.8-0.01,2.68c0.79,0.96,1.55,0.07,2.33-0.02c0.13,0.87-0.16,1.56-0.99,1.92c-1.05,0.46-1.83-0.07-2.52-0.78
	c-0.19-0.26-0.15-0.82-0.69-0.61l0,0l0,0l-0.09,0.02c0.19-0.34,0.37-0.69,0.05-1.05c-0.17-0.54-0.05-1.19-0.69-1.82
	c0.09,0.86,0.12,1.5,0.45,2.08c0.06,0.27,0.12,0.53,0.18,0.8c0,0,0,0,0,0l0,0c0,0,0,0,0,0c0,0,0,0.01,0,0.01c0,0,0,0,0,0
	c0,0,0,0,0,0c0.17,0.29,0.34,0.58,0.51,0.87c0.85,1.42,1.81,1.89,2.96,1.46c1.11-0.42,1.52-1.48,1.14-2.93
	c-0.06-0.51-0.41-0.81-0.79-1.1c-0.58,0.35-0.72,1.6-1.81,0.83c-0.06-0.73,0.35-1.24,0.82-1.74c0.61-0.65,1.46-0.3,2.18-0.51
	c0.92-0.27,1.97-0.09,2.97-0.1c0.53,0.03,1.05,0.06,1.63,0.09c-0.84,1.52-1.36,3-0.65,4.64c-0.04,0.66,0.35,1.09,0.84,1.43
	c0.47,0.33,0.99,0.38,1.35-0.14c0.36-0.53,0.4-1.12-0.15-1.56c-0.54-0.43-0.94-0.16-1.2,0.39c-0.36,0.75-0.46-0.02-0.68-0.11
	c-0.04-0.23-0.09-0.46-0.11-0.69c-0.21-2.4,1.27-4.01,3.68-4.01c0.28,0,0.56-0.01,0.84,0c1.07,0.02,2.52-0.35,3.11,0.18
	c0.68,0.62,0.21,2.06,0.2,3.14c-0.01,1.03-0.25,2.08,0.75,3c0-1.91,0.01-3.72-0.01-5.54c0-0.47-0.02-0.88,0.66-0.79
	c0.28,0.04,0.58,0.04,0.54-0.39C190.68,14.58,190.33,14.73,190.09,14.73z"/>
<path class="st1" d="M22.29,16.97c-0.16-0.35-0.86-0.44-0.58-0.97c0.28-0.54,0.79-0.61,1.47-0.16c-0.51-1.21-0.97-1.41-1.91-0.64
	c-0.62,0.51-1.18,1.04-1.61,1.67c-0.4,0.58-1.05,1.39-0.25,1.95c0.82,0.57,1.09-0.51,1.51-0.92c0.29,0.07,0.28,0.3,0.39,0.46
	c0.28,0.4,0.65,0.8,1.17,0.52c0.56-0.3,0.48-0.84,0.22-1.33C22.58,17.34,22.39,17.17,22.29,16.97z"/>
<path class="st1" d="M20.48,15.43c-0.52-0.44-0.84-0.73-1.38-0.72c-0.83,0.03-1.68-0.07-2.5,0.04c-0.53,0.07-1.51-0.52-1.53,0.37
	c-0.02,0.65,1,0.1,1.52,0.4c-0.8,1.44-1.34,2.94-0.62,4.59c-0.03,0.65,0.35,1.09,0.84,1.43c0.47,0.32,0.99,0.38,1.35-0.14
	c0.36-0.53,0.4-1.12-0.15-1.56c-0.54-0.43-0.94-0.16-1.2,0.38c-0.36,0.75-0.46-0.01-0.68-0.11c-0.29-1.33,0.08-2.5,0.75-3.66
	C17.7,15.05,19.08,15.51,20.48,15.43z"/>
<path class="st1" d="M266.6,14.73c-0.24-0.02-0.61-0.15-0.68,0.24c-0.12,0.66-0.42,1.59-0.31,1.94c0.39,1.25,0.21,2.48,0.28,3.72
	c0.03,0.5,0.16,0.89,0.78,1.15c0-1.76-0.01-3.42,0-5.09c0-0.6-0.29-1.41,0.89-1.27c0.34,0.04,0.4-0.34,0.27-0.49
	C267.51,14.52,267.02,14.76,266.6,14.73z"/>
<path class="st1" d="M119.94,14.9c-0.14,0.69-0.43,1.62-0.32,2.05c0.32,1.18,0.21,2.32,0.27,3.48c0.03,0.52,0.06,1,0.78,1.36
	c0-1.84,0-3.56,0-5.28c0-0.55-0.22-1.24,0.82-1.1c0.4,0.06,0.44-0.29,0.34-0.56C121.74,14.62,119.99,14.65,119.94,14.9z"/>
<path class="st1" d="M159.15,14.73c-0.39-0.07-0.53,0.11-0.56,0.52c-0.16,1.81,0,3.62,0.01,5.42c0,0.47,0.26,0.77,0.79,1.24
	c0-2.06,0.01-3.85-0.01-5.64c-0.01-0.52,0-0.95,0.73-0.85c0.34,0.05,0.62-0.16,0.44-0.46C160.22,14.45,159.62,14.81,159.15,14.73z"
	/>
<path class="st1" d="M222.65,14.75c-0.58,0.06-0.29,0.56-0.3,0.84c-0.03,1.32,0.19,2.69-0.08,3.95c-0.21,0.99,0.22,1.51,0.8,2.14
	c0-1.73,0-3.46,0-5.19c0-0.54-0.22-1.26,0.81-1.07c0.21,0.04,0.39-0.06,0.38-0.31c-0.01-0.1-0.05-0.29-0.09-0.3
	C223.67,14.77,223.15,14.7,222.65,14.75z"/>
<path class="st1" d="M196.95,17.27c0.44-0.14,0.85-0.41,0.76-0.91c-0.23-1.21,0.59-0.89,1.23-0.88c0.38,0.01,0.62,0.52,1.08,0.29
	c-0.88-1.36-3.45-1.4-4.22-0.09c-0.24,0.4-0.29,0.83,0,1.22C196.07,17.29,196.49,17.41,196.95,17.27z"/>
<path class="st1" d="M116.44,15.75c0.8-0.61,1.61-0.19,2.52,0.14c-1.03-1.5-3.12-1.51-3.79-0.16c-0.37,0.74-0.13,1.34,0.42,1.91
	c0.64,0.66,0.93,0.06,1.29-0.31c0.25-0.25,0.56-0.27,0.89-0.23c0.54,0.62,0.23,1.04-0.32,1.45c-0.53,0.4-1.23,0.43-1.83,0.73
	c0.82,0.94,1.15,0.97,2.07,0.24c1-0.79,1.13-1.52,0.45-2.47c-0.7-0.8-1.48-0.39-2.25-0.05C115.74,16.37,116.07,16.03,116.44,15.75z"
	/>
<path class="st1" d="M262.43,15.75c0.8-0.61,1.61-0.19,2.52,0.14c-1.03-1.5-3.12-1.51-3.79-0.16c-0.37,0.74-0.13,1.34,0.42,1.91
	c0.64,0.66,0.93,0.06,1.29-0.31c0.25-0.25,0.56-0.27,0.89-0.23c0.54,0.62,0.23,1.04-0.32,1.45c-0.53,0.4-1.23,0.43-1.8,0.72
	c0.61,1.2,1.34,0.78,2.04,0.25c1.01-0.77,1.13-1.51,0.45-2.46c-0.7-0.8-1.48-0.39-2.25-0.05C261.73,16.37,262.06,16.03,262.43,15.75
	z"/>
<path class="st1" d="M94.6,17.89c-0.39,0.33-0.58,0.74-0.38,1.25c0.17,0.44,0.48,0.7,0.97,0.75c0.44,0.04,0.99-0.1,0.99-0.45
	c0.03-1.49,0.84-0.8,1.57-0.42C97.1,17.64,95.49,17.13,94.6,17.89z"/>
<path class="st1" d="M184.5,17.88c-0.37,0.35-0.58,0.74-0.4,1.25c0.16,0.44,0.47,0.71,0.96,0.76c0.44,0.05,0.99-0.09,1-0.44
	c0.04-1.46,0.81-0.85,1.71-0.35C187.07,17.61,185.25,17.18,184.5,17.88z"/>
<path class="st1" d="M200.4,17.65c0.2-0.46,0.26-0.89-0.04-1.33c-0.39,0.19-0.28,0.45-0.3,0.67c-0.04,0.59-0.12,1.02-0.93,0.65
	c-0.6-0.28-1.18-0.12-1.52,0.51c-0.22,0.4-0.13,0.78,0.22,1.05c0.52,0.4,1.05,0.27,1.53-0.1c0.26-0.2,0.48-0.59,0.85-0.13
	c-0.22,1.66-1.78,2.38-3.35,1.51c-1.09-0.6-1.66-1.61-2.1-2.71c-0.22-0.3-0.04-0.77-0.44-1c0.04-0.48,0.11-0.97-0.39-1.47
	c-0.13,0.83,0.06,1.46,0.33,2.09c0.03,0.2,0.05,0.41,0.08,0.61c0.42,1.13,0.91,2.23,1.87,3.04c0.93,0.79,2.43,0.99,3.35,0.41
	c0.93-0.59,1.36-1.41,0.93-2.51C200.18,18.54,200.21,18.1,200.4,17.65z"/>
<path class="st1" d="M62.85,16.49c-0.85,0.22-1.51-0.03-2.37-0.6c0.24,0.81,0.62,1.2,1.12,1.4c0.58,0.22,0.63,0.48,0.45,1.05
	c-0.33,1.04-0.27,2.12,0.22,3.19c-0.15-1.54,0.03-2.9,1.23-4.08C63.89,17.05,63.33,16.36,62.85,16.49z"/>
<path class="st1" d="M178.36,16.49c-0.83,0.2-1.47,0.03-2.18-0.4c0.1,0.51,0.35,0.94,0.79,1.09c0.8,0.28,0.75,0.73,0.58,1.41
	c-0.33,1.29-0.18,2.22,0.44,3.07c-0.3-1.69-0.13-3.07,1.07-4.24C179.41,17.07,178.91,16.35,178.36,16.49z"/>
<path class="st1" d="M164.31,19.12c0-0.9-0.01-1.79,0-2.69c0-0.33-0.03-0.69-0.44-0.68c-0.44,0.01-0.24,0.41-0.24,0.64
	c-0.03,0.78-0.01,1.56-0.01,2.34c0,0.82,0,1.64,0,2.45c0,0.31-0.05,0.69,0.41,0.68c0.44-0.01,0.27-0.4,0.28-0.64
	C164.32,20.52,164.31,19.82,164.31,19.12z"/>
<path class="st1" d="M158.05,16.43c-0.91-1.56-1.95-2.04-2.99-1.54c-1.02,0.49-1.31,1.55-0.8,2.89c0.53,1.28,1.65,1.79,2.55,1.17
	c0.4-0.28,0.54-0.65,0.44-1.11c-0.11-0.48-0.41-0.73-0.91-0.76c-0.43-0.03-0.88,0.1-0.92,0.54c-0.12,1.23-0.59,0.21-0.9,0.16
	c-0.16-0.57-0.28-1.16,0.23-1.63C155.81,15.18,156.86,15.84,158.05,16.43z"/>
<path class="st1" d="M81.73,14.27c0.73-1.21,1.59-2.2,3.21-2.1c0.29,0.22,0.58,0.42,1.05,0.23c-0.22-0.33-0.47-0.44-0.78-0.48
	c-1.49-0.68-2.57,0.1-3.65,0.97C80.86,13.48,80.83,13.92,81.73,14.27z"/>
<path class="st1" d="M91.8,14.27c0.73-1.21,1.59-2.2,3.21-2.1c0.29,0.22,0.58,0.42,1.05,0.23c-0.22-0.33-0.47-0.44-0.78-0.48
	c-1.49-0.68-2.57,0.1-3.65,0.97C90.93,13.48,90.9,13.92,91.8,14.27z"/>
<path class="st1" d="M134.47,14.27c0.73-1.21,1.59-2.2,3.21-2.1c0.29,0.22,0.58,0.42,1.14,0.19c-0.34-0.24-0.54-0.44-0.87-0.44
	c-1.49-0.68-2.57,0.1-3.65,0.97C133.6,13.48,133.57,13.92,134.47,14.27z"/>
<path class="st1" d="M227.72,14.27c0.73-1.21,1.59-2.2,3.21-2.1c0.29,0.22,0.58,0.42,1.14,0.19c-0.34-0.24-0.54-0.44-0.87-0.44
	c-1.49-0.68-2.57,0.1-3.65,0.97C226.86,13.48,226.82,13.92,227.72,14.27z"/>
<path class="st1" d="M237.79,14.27c0.73-1.21,1.59-2.2,3.21-2.1c0.29,0.22,0.58,0.42,1.14,0.19c-0.35-0.24-0.54-0.44-0.87-0.44
	c-1.49-0.68-2.57,0.1-3.65,0.97C236.92,13.48,236.89,13.92,237.79,14.27z"/>
<path class="st1" d="M295.69,13.82c-0.32,0.01-0.66-0.02-0.76,0.38c-0.16,0.64-0.32,1.28-0.48,1.91c-0.04,0.16-0.26,0.36,0.02,0.47
	c0.18,0.07,0.42,0.05,0.52-0.15c0.34-0.73,0.66-1.48,0.86-1.92C295.98,13.98,295.99,13.8,295.69,13.82z"/>
<path class="st1" d="M14.48,13.82c-0.34-0.11-0.52,0.17-0.62,0.42c-0.32,0.74-0.71,1.46-0.81,2.3c0.72,0.22,1.06-0.04,1.16-0.72
	c0.07-0.46,0.25-0.9,0.3-1.36C14.53,14.26,14.97,13.98,14.48,13.82z"/>
<path class="st1" d="M12.74,13.85c-0.23-0.1-0.48,0.02-0.58,0.26c-0.34,0.77-0.66,1.56-1.03,2.43c0.81,0.16,1.21,0.02,1.28-0.73
	c0.05-0.49,0.25-0.97,0.38-1.45C12.83,14.18,12.96,13.94,12.74,13.85z"/>
<path class="st1" d="M282.27,21.2c0.02-0.49-0.28-0.78-0.77-0.85c-0.54,0.06-0.81,0.37-0.79,0.86c0.02,0.43,0.25,0.76,0.72,0.78
	C281.96,22.01,282.25,21.69,282.27,21.2z"/>
<path class="st1" d="M73.88,20.37c-0.47,0.02-0.72,0.34-0.73,0.77c-0.01,0.48,0.23,0.85,0.76,0.85c0.52,0,0.75-0.35,0.81-0.83
	C74.66,20.68,74.41,20.35,73.88,20.37z"/>
<path class="st1" d="M38.68,20.37c-0.46,0-0.73,0.29-0.76,0.73c-0.03,0.49,0.2,0.86,0.72,0.89c0.52,0.03,0.77-0.32,0.85-0.79
	C39.44,20.72,39.21,20.37,38.68,20.37z"/>
<path class="st1" d="M253.26,20.61c-0.47-0.03-0.74,0.26-0.79,0.7c-0.06,0.49,0.16,0.87,0.68,0.92c0.51,0.05,0.79-0.26,0.87-0.72
	C254.02,20.97,253.77,20.65,253.26,20.61z"/>
<path class="st1" d="M107.31,20.61c-0.53-0.05-0.78,0.28-0.85,0.77c0.03,0.49,0.24,0.85,0.77,0.85c0.51,0,0.79-0.32,0.79-0.83
	C108.02,20.95,107.75,20.65,107.31,20.61z"/>
<path class="st1" d="M28.64,20.61c-0.47-0.03-0.74,0.26-0.79,0.7c-0.06,0.49,0.16,0.87,0.68,0.92c0.51,0.05,0.79-0.26,0.87-0.72
	C29.4,20.97,29.15,20.65,28.64,20.61z"/>
<path class="st1" d="M133.18,12.62c0.31-0.35,0.43-0.72,0.15-1.38c-0.2,0.52-0.32,0.82-0.43,1.12c-0.78,0.68-1.58,0.66-2.38,0.03
	c-0.22-0.29-0.07-0.79-0.68-0.98c0,0.51,0.06,0.92,0.41,1.26C131.32,13.93,132.17,13.92,133.18,12.62z"/>
<path class="st1" d="M131.42,12.12c0.3,0.05,0.63,0.12,0.85-0.24c0.07-0.22-0.08-0.36-0.27-0.4c-0.3-0.06-0.65-0.15-0.86,0.17
	C130.97,11.92,131.18,12.08,131.42,12.12z"/>
<path class="st1" d="M158,13.23l1.03,0.33c0.47-0.73,1.28-1.73,1.8-2.27L161,11C160.48,11.37,158.67,12.42,158,13.23z"/>
<polyline class="st1" points="221,19 223,20 223,19 221.23,18.54 "/>
<rect x="290" y="15.4" class="st2" width="4" height="7"/>
<path class="st1" d="M293.69,15.38h-1.04v6.25l-0.31-0.3v-0.58c0.02-0.66-0.18-1.36-0.58-2.08c-0.46-0.82-1-1.24-1.6-1.24
	l-0.16,0.04c0.26,0.34,0.38,0.58,0.38,0.74c0,0.26-0.07,0.47-0.22,0.64c-0.14,0.17-0.34,0.26-0.6,0.26c-0.76,0-1.14-0.37-1.14-1.1
	c0-0.4,0.14-0.73,0.43-1s0.63-0.4,1.03-0.4c0.83,0,1.56,0.65,2.17,1.94v-3.19h-4.09l-0.6-0.61h5.71L293.69,15.38z"/>
<rect x="243" y="15.43" class="st2" width="4" height="7"/>
<path class="st1" d="M246.69,15.38h-1.04v6.25l-0.31-0.3v-0.58c0.02-0.66-0.18-1.36-0.58-2.08c-0.46-0.82-1-1.24-1.6-1.24
	l-0.16,0.04c0.26,0.34,0.38,0.58,0.38,0.74c0,0.26-0.07,0.47-0.22,0.64c-0.14,0.17-0.34,0.26-0.6,0.26c-0.76,0-1.14-0.37-1.14-1.1
	c0-0.4,0.14-0.73,0.43-1s0.63-0.4,1.03-0.4c0.83,0,1.56,0.65,2.17,1.94v-3.19h-4.09l-0.6-0.61h5.71L246.69,15.38z"/>
<rect x="186" y="15.43" class="st2" width="4" height="7"/>
<rect x="184" y="15.43" class="st2" width="4" height="7"/>
<path class="st1" d="M189.69,15.38h-1.04v6.25l-0.31-0.3v-0.58c0.02-0.66-0.18-1.36-0.58-2.08c-0.46-0.82-1-1.24-1.6-1.24
	l-0.16,0.04c0.26,0.34,0.38,0.58,0.38,0.74c0,0.26-0.07,0.47-0.22,0.64c-0.14,0.17-0.34,0.26-0.6,0.26c-0.76,0-1.14-0.37-1.14-1.1
	c0-0.4,0.14-0.73,0.43-1s0.63-0.4,1.03-0.4c0.83,0,1.56,0.65,2.17,1.94v-3.19h-4.09l-0.6-0.61h5.71L189.69,15.38z"/>
<rect x="96" y="15.4" class="st2" width="5" height="7"/>
<rect x="94" y="15.4" class="st2" width="4" height="7"/>
<path class="st1" d="M99.69,15.38h-1.04v6.25l-0.31-0.3v-0.58c0.02-0.66-0.18-1.36-0.58-2.08c-0.46-0.82-1-1.24-1.6-1.24l-0.16,0.04
	c0.26,0.34,0.38,0.58,0.38,0.74c0,0.26-0.07,0.47-0.22,0.64c-0.14,0.17-0.34,0.26-0.6,0.26c-0.76,0-1.14-0.37-1.14-1.1
	c0-0.4,0.14-0.73,0.43-1s0.63-0.4,1.03-0.4c0.83,0,1.56,0.65,2.17,1.94v-3.19h-4.09l-0.6-0.61h5.71L99.69,15.38z"/>
</svg>
